<?xml version="1.0" encoding="utf-8"?>
<!-- Generator: Adobe Illustrator 21.0.2, SVG Export Plug-In . SVG Version: 6.00 Build 0)  -->
<svg version="1.1" id="Layer_1" xmlns="http://www.w3.org/2000/svg" xmlns:xlink="http://www.w3.org/1999/xlink" x="0px" y="0px"
	 viewBox="0 0 443 180" style="enable-background:new 0 0 443 180;" xml:space="preserve">
<style type="text/css">
	.st0{fill:#222222;}
	.st1{font-family:'ArialMT';}
	.st2{font-size:32px;}
</style>
<g id="Bottom_Square">
	<g>
		<g>
			<path class="st0" d="M18.5,82.1V55.7h-8.2v80.8h8.2v-54C18.5,82.4,18.5,82.3,18.5,82.1"/>
			<polygon class="st0" points="71.3,63.3 50.3,89.2 29,63.2 29,79.2 50.1,105.1 71.3,79.3 			"/>
			<polygon class="st0" points="247.7,63.4 226.7,89.2 205.5,63.3 205.5,79.3 226.6,105.1 247.7,79.3 			"/>
			<path class="st0" d="M81.8,55.7v32.6v0.1v48.1H90V55.7H81.8z"/>
			<rect x="134.3" y="55.7" class="st0" width="8.2" height="80.8"/>
			<polygon class="st0" points="195,55.7 186.8,55.7 186.8,136.5 195,136.5 195,66.3 195,66.3 			"/>
			<polygon class="st0" points="258.2,55.7 258.2,66.3 258.3,66.3 258.3,136.5 266.5,136.5 266.5,55.7 			"/>
			<rect x="310.8" y="55.7" class="st0" width="8.2" height="80.8"/>
			<g>
				<polygon class="st0" points="396.1,141.1 376.6,129.8 357.4,118.4 357.5,73.2 376.6,61.9 396.7,50.9 416.2,61.9 433.7,72.5 
					429.5,79.3 412.1,68.8 396.6,60 380.5,68.8 365.5,77.7 365.5,113.8 380.7,122.9 396.1,131.9 411.1,123.2 429.4,113 433.3,120 
					415.1,130.1 				"/>
			</g>
		</g>
		<g>
			<path class="st0" d="M183.3,173.2v-1.6c1.8,0.6,3.6,0.9,5.4,0.9c3.5,0,5.2-1.1,5.2-3.3c0-1.8-1.3-2.7-3.9-2.7h-2
				c-3.5,0-5.2-1.5-5.2-4.4c0-3.2,2.3-4.7,6.9-4.7c1.8,0,3.6,0.3,5.4,0.8v1.6c-1.8-0.6-3.6-0.9-5.4-0.9c-3.5,0-5.2,1.1-5.2,3.3
				c0,1.9,1.2,2.8,3.5,2.8h2.1c3.7,0,5.5,1.4,5.5,4.3c0,3.2-2.3,4.7-6.9,4.7C187,174,185.2,173.8,183.3,173.2z"/>
			<path class="st0" d="M199.1,165.7c0-5.6,2.6-8.4,7.7-8.4c5.1,0,7.7,2.8,7.7,8.4c0,5.6-2.6,8.4-7.7,8.4
				C201.7,174.2,199.1,171.4,199.1,165.7z M206.8,172.8c4,0,6.1-2.4,6.1-7.1c0-4.6-2-7-6.1-7c-4,0-6.1,2.3-6.1,7
				S202.8,172.8,206.8,172.8z"/>
			<path class="st0" d="M230.8,173.5c-1.4,0.3-2.8,0.5-4.4,0.5c-5.6,0-8.4-2.9-8.4-8.6c0-5.3,2.8-8,8.4-8c1.6,0,3,0.2,4.4,0.5v1.4
				c-1.5-0.3-2.9-0.5-4.3-0.5c-4.5,0-6.7,2.2-6.7,6.5c0,4.8,2.2,7.2,6.7,7.2c1.4,0,2.8-0.2,4.3-0.5V173.5z"/>
			<path class="st0" d="M236.8,151.5v1.9h-2v-1.9H236.8z M236.6,157.5V174H235v-16.6h1.6V157.5z"/>
			<path class="st0" d="M241,169.3c0-3.3,2.2-4.9,6.6-4.9c1.5,0,3.2,0.1,5,0.3v-2c0-2.5-1.6-3.8-4.8-3.8c-1.8,0-3.6,0.3-5.4,0.8
				v-1.4c1.8-0.5,3.6-0.8,5.4-0.8c4.3,0,6.4,1.7,6.4,5.1V174h-1l-0.4-1.6c-2.1,1.1-4.1,1.6-6,1.6C242.9,174,241,172.5,241,169.3z
				 M247.6,165.8c-3.3,0-4.9,1.2-4.9,3.5c0,2.2,1.4,3.3,4.1,3.3c2,0,3.9-0.5,5.8-1.6v-4.9C250.8,165.9,249.1,165.8,247.6,165.8z"/>
			<path class="st0" d="M261.2,151.5V174h-1.7v-22.5H261.2z"/>
		</g>
		<text transform="matrix(1 0 0 1 80.6951 33.0074)" class="st0 st1 st2">High School Edition</text>
	</g>
</g>
<g id="Layer_2">
</g>
<g id="Layer_5">
</g>
<g id="Layer_3">
</g>
<g id="Layer_4">
</g>
</svg>
