<?xml version="1.0" encoding="utf-8"?>
<!-- Generator: Adobe Illustrator 21.0.2, SVG Export Plug-In . SVG Version: 6.00 Build 0)  -->
<svg version="1.1" id="Layer_1" xmlns="http://www.w3.org/2000/svg" xmlns:xlink="http://www.w3.org/1999/xlink" x="0px" y="0px"
	 viewBox="0 0 443 180" style="enable-background:new 0 0 443 180;" xml:space="preserve">
<style type="text/css">
	.st0{fill:#222222;}
	.st1{enable-background:new    ;}
</style>
<g id="Bottom_Square">
	<g>
		<g>
			<path class="st0" d="M18.5,82.1V55.7h-8.2v80.8h8.2v-54C18.5,82.4,18.5,82.3,18.5,82.1"/>
			<polygon class="st0" points="71.3,63.3 50.3,89.2 29,63.2 29,79.2 50.1,105.1 71.3,79.3 			"/>
			<polygon class="st0" points="247.7,63.4 226.7,89.2 205.5,63.3 205.5,79.3 226.6,105.1 247.7,79.3 			"/>
			<path class="st0" d="M81.8,55.7v32.6v0.1v48.1H90V55.7H81.8z"/>
			<rect x="134.3" y="55.7" class="st0" width="8.2" height="80.8"/>
			<polygon class="st0" points="195,55.7 186.8,55.7 186.8,136.5 195,136.5 195,66.3 195,66.3 			"/>
			<polygon class="st0" points="258.2,55.7 258.2,66.3 258.3,66.3 258.3,136.5 266.5,136.5 266.5,55.7 			"/>
			<rect x="310.8" y="55.7" class="st0" width="8.2" height="80.8"/>
			<g>
				<polygon class="st0" points="396.1,141.1 376.6,129.8 357.4,118.4 357.5,73.2 376.6,61.9 396.7,50.9 416.2,61.9 433.7,72.5 
					429.5,79.3 412.1,68.8 396.6,60 380.5,68.8 365.5,77.7 365.5,113.8 380.7,122.9 396.1,131.9 411.1,123.2 429.4,113 433.3,120 
					415.1,130.1 				"/>
			</g>
		</g>
		<g>
			<path class="st0" d="M183.3,173.2v-1.6c1.8,0.6,3.6,0.9,5.4,0.9c3.5,0,5.2-1.1,5.2-3.3c0-1.8-1.3-2.7-3.9-2.7h-2
				c-3.5,0-5.2-1.5-5.2-4.4c0-3.2,2.3-4.7,6.9-4.7c1.8,0,3.6,0.3,5.4,0.8v1.6c-1.8-0.6-3.6-0.9-5.4-0.9c-3.5,0-5.2,1.1-5.2,3.3
				c0,1.9,1.2,2.8,3.5,2.8h2.1c3.7,0,5.5,1.4,5.5,4.3c0,3.2-2.3,4.7-6.9,4.7C187,174,185.2,173.8,183.3,173.2z"/>
			<path class="st0" d="M199.1,165.7c0-5.6,2.6-8.4,7.7-8.4c5.1,0,7.7,2.8,7.7,8.4c0,5.6-2.6,8.4-7.7,8.4
				C201.7,174.2,199.1,171.4,199.1,165.7z M206.8,172.8c4,0,6.1-2.4,6.1-7.1c0-4.6-2-7-6.1-7c-4,0-6.1,2.3-6.1,7
				S202.8,172.8,206.8,172.8z"/>
			<path class="st0" d="M230.8,173.5c-1.4,0.3-2.8,0.5-4.4,0.5c-5.6,0-8.4-2.9-8.4-8.6c0-5.3,2.8-8,8.4-8c1.6,0,3,0.2,4.4,0.5v1.4
				c-1.5-0.3-2.9-0.5-4.3-0.5c-4.5,0-6.7,2.2-6.7,6.5c0,4.8,2.2,7.2,6.7,7.2c1.4,0,2.8-0.2,4.3-0.5V173.5z"/>
			<path class="st0" d="M236.8,151.5v1.9h-2v-1.9H236.8z M236.6,157.5V174H235v-16.6h1.6V157.5z"/>
			<path class="st0" d="M241,169.3c0-3.3,2.2-4.9,6.6-4.9c1.5,0,3.2,0.1,5,0.3v-2c0-2.5-1.6-3.8-4.8-3.8c-1.8,0-3.6,0.3-5.4,0.8
				v-1.4c1.8-0.5,3.6-0.8,5.4-0.8c4.3,0,6.4,1.7,6.4,5.1V174h-1l-0.4-1.6c-2.1,1.1-4.1,1.6-6,1.6C242.9,174,241,172.5,241,169.3z
				 M247.6,165.8c-3.3,0-4.9,1.2-4.9,3.5c0,2.2,1.4,3.3,4.1,3.3c2,0,3.9-0.5,5.8-1.6v-4.9C250.8,165.9,249.1,165.8,247.6,165.8z"/>
			<path class="st0" d="M261.2,151.5V174h-1.7v-22.5H261.2z"/>
		</g>
		<g class="st1">
			<path class="st0" d="M83.2,33V10.7h1.6V21H100V10.7h1.6V33H100V22.4H84.8V33H83.2z"/>
			<path class="st0" d="M108.8,10.7v1.9h-2v-1.9H108.8z M108.7,16.6V33H107V16.6H108.7z"/>
			<path class="st0" d="M127.5,33c0,4-2.4,5.9-7.2,5.9c-2,0-3.8-0.3-5.4-0.8v-1.4c1.6,0.5,3.4,0.8,5.4,0.8c3.7,0,5.6-1.5,5.6-4.5
				v-0.8c-1.9,0.5-3.5,0.8-4.9,0.8c-5.2,0-7.8-2.8-7.8-8.3c0-5.4,2.8-8.1,8.4-8.1c2.1,0,4.1,0.2,6,0.7L127.5,33L127.5,33z
				 M125.9,18.4c-1.5-0.2-3-0.4-4.5-0.4c-4.4,0-6.6,2.2-6.6,6.6c0,4.5,2.1,6.8,6.2,6.8c1.5,0,3.1-0.3,4.9-0.8V18.4z"/>
			<path class="st0" d="M132.5,33V10.7h1.6v7.7c1.9-1.2,3.9-1.8,5.9-1.8c4,0,6,2,6,6.1V33h-1.6V22c0-2.6-1.5-4-4.4-4
				c-2,0-3.9,0.7-5.8,2.1V33H132.5z"/>
			<path class="st0" d="M158.7,32.2v-1.7c2.3,0.8,4.9,1.2,7.8,1.2c4.7,0,7-1.8,7-5.3c0-2.6-1.5-3.9-4.6-3.9h-4.6
				c-4.2,0-6.2-1.9-6.2-5.6c0-4.3,3-6.4,9.1-6.4c2.5,0,4.9,0.3,7.3,0.9V13c-2.3-0.7-4.8-1.1-7.3-1.1c-5,0-7.5,1.7-7.5,5
				c0,2.7,1.5,4.1,4.6,4.1h4.6c4.1,0,6.2,1.8,6.2,5.5c0,4.5-2.9,6.7-8.7,6.7C163.6,33.2,161,32.9,158.7,32.2z"/>
			<path class="st0" d="M191.2,32.5c-1.4,0.3-2.8,0.5-4.4,0.5c-5.5,0-8.3-2.8-8.3-8.5c0-5.3,2.8-7.9,8.3-7.9c1.6,0,3,0.2,4.4,0.5
				v1.4c-1.5-0.3-2.9-0.5-4.2-0.5c-4.4,0-6.6,2.2-6.6,6.5c0,4.7,2.2,7.1,6.6,7.1c1.4,0,2.8-0.2,4.2-0.5V32.5z"/>
			<path class="st0" d="M195,33V10.7h1.6v7.7c1.9-1.2,3.9-1.8,5.9-1.8c4,0,6,2,6,6.1V33h-1.6V22c0-2.6-1.5-4-4.4-4
				c-2,0-3.9,0.7-5.8,2.1V33H195z"/>
			<path class="st0" d="M212.8,24.8c0-5.6,2.6-8.4,7.7-8.4c5.1,0,7.7,2.8,7.7,8.4s-2.6,8.3-7.7,8.3
				C215.3,33.1,212.8,30.4,212.8,24.8z M220.4,31.8c4,0,6-2.3,6-7c0-4.6-2-6.9-6-6.9s-6,2.3-6,6.9S216.4,31.8,220.4,31.8z"/>
			<path class="st0" d="M231.5,24.8c0-5.6,2.6-8.4,7.7-8.4c5.1,0,7.7,2.8,7.7,8.4s-2.6,8.3-7.7,8.3S231.5,30.4,231.5,24.8z
				 M239.2,31.8c4,0,6-2.3,6-7c0-4.6-2-6.9-6-6.9s-6,2.3-6,6.9C233.1,29.4,235.2,31.8,239.2,31.8z"/>
			<path class="st0" d="M253,10.7V33h-1.6V10.7H253z"/>
			<path class="st0" d="M280.8,10.7v1.4h-13V21h12.5v1.4h-12.5v9.2H281V33h-14.9V10.7H280.8z"/>
			<path class="st0" d="M299.2,32c-1.8,0.7-4,1-6.7,1c-5.1,0-7.6-2.8-7.6-8.5c0-5.2,2.6-7.9,7.8-7.9c1.6,0,3.3,0.3,5,0.8v-6.7h1.6
				L299.2,32L299.2,32z M297.6,18.9c-1.6-0.6-3.2-0.8-4.9-0.8c-4,0-6,2.1-6,6.4c0,4.8,2,7.2,6,7.2c1.7,0,3.4-0.2,4.9-0.6V18.9z"/>
			<path class="st0" d="M306.3,10.7v1.9h-2v-1.9H306.3z M306.2,16.6V33h-1.6V16.6H306.2z"/>
			<path class="st0" d="M311.4,13.9h1.2l0.3,2.7h4.9V18H313v10.4c0,2.2,0.8,3.2,2.4,3.2h2.4V33h-2.4c-2.7,0-4-1.5-4-4.4V13.9z"/>
			<path class="st0" d="M323.4,10.7v1.9h-2v-1.9H323.4z M323.2,16.6V33h-1.6V16.6H323.2z"/>
			<path class="st0" d="M327.8,24.8c0-5.6,2.6-8.4,7.7-8.4s7.7,2.8,7.7,8.4s-2.6,8.3-7.7,8.3C330.3,33.1,327.8,30.4,327.8,24.8z
				 M335.4,31.8c4,0,6-2.3,6-7c0-4.6-2-6.9-6-6.9s-6,2.3-6,6.9S331.4,31.8,335.4,31.8z"/>
			<path class="st0" d="M347.3,33V16.6h1.2l0.2,2.1c2.1-1.4,4.1-2.1,6.2-2.1c4,0,6,1.7,6,5.2V33h-1.6V21.7c0-2.4-1.5-3.7-4.4-3.7
				c-2,0-3.9,0.7-5.8,2.1V33H347.3z"/>
		</g>
	</g>
</g>
<g id="Layer_2">
</g>
<g id="Layer_5">
</g>
<g id="Layer_3">
</g>
<g id="Layer_4">
</g>
</svg>
