<?xml version="1.0" encoding="utf-8"?>
<!-- Generator: Adobe Illustrator 21.0.2, SVG Export Plug-In . SVG Version: 6.00 Build 0)  -->
<svg version="1.1" id="Layer_1" xmlns="http://www.w3.org/2000/svg" xmlns:xlink="http://www.w3.org/1999/xlink" x="0px" y="0px"
	 viewBox="0 0 422 142" style="enable-background:new 0 0 422 142;" xml:space="preserve">
<style type="text/css">
	.st0{fill:#222222;}
</style>
<path id="path-1" class="st0" d="M8.2,30.4V4.7H0v78.6h8.2V30.7C8.2,30.6,8.2,30.5,8.2,30.4L8.2,30.4z M60.7,12.1L39.8,37.2L18.7,12
	v15.6l21,25.1l21-25.1V12.1L60.7,12.1z M236.6,12.2l-20.9,25.1l-21.2-25.2v15.6l21,25.1l21-25.1V12.2L236.6,12.2z M71.2,4.7v31.7
	c0,0,0,0.1,0,0.1v46.7h8.2V4.7H71.2L71.2,4.7z M123.6,4.7h8.2v78.6h-8.2V4.7L123.6,4.7z M184.1,4.7h-8.2v78.6h8.2V15h0V4.7
	L184.1,4.7z M247.1,4.7V15h0.1v68.3h8.2V4.7H247.1L247.1,4.7z M299.5,4.7h8.2v78.6h-8.2V4.7L299.5,4.7z M384.6,87.8l-19.5-11
	L346,65.7l0.1-44l19-11l20-10.7l19.5,10.8L422,21l-4.1,6.7l-17.3-10.3L385,8.9l-16.1,8.6L354,26.1l0,35.1l15.2,8.8l15.4,8.7
	l14.9-8.5l18.2-9.9l3.9,6.8l-18.2,9.9L384.6,87.8L384.6,87.8z"/>
<path id="social" class="st0" d="M159.4,117.1c-0.2,0.4-0.6,0.6-1.1,0.6c-0.3,0-0.6-0.1-1-0.3c-0.4-0.2-0.8-0.4-1.4-0.7
	c-0.5-0.3-1.2-0.5-1.9-0.7s-1.6-0.3-2.6-0.3c-0.9,0-1.7,0.1-2.4,0.3s-1.3,0.5-1.8,0.9c-0.5,0.4-0.9,0.8-1.1,1.3s-0.4,1.1-0.4,1.7
	c0,0.8,0.2,1.4,0.7,1.9c0.4,0.5,1,0.9,1.7,1.3c0.7,0.4,1.5,0.7,2.5,1s1.9,0.6,2.8,0.9c1,0.3,1.9,0.7,2.8,1.1
	c0.9,0.4,1.7,0.9,2.5,1.4c0.7,0.6,1.3,1.3,1.7,2.1s0.7,1.8,0.7,3c0,1.3-0.2,2.6-0.7,3.7c-0.5,1.1-1.2,2.1-2.2,3s-2.1,1.5-3.5,2
	c-1.4,0.5-3,0.7-4.8,0.7c-2.1,0-3.9-0.3-5.6-1c-1.7-0.7-3.1-1.5-4.3-2.6l1.2-2c0.2-0.3,0.3-0.4,0.6-0.6s0.5-0.2,0.8-0.2
	s0.7,0.1,1.1,0.4s0.9,0.6,1.4,0.9s1.2,0.6,2,0.9s1.8,0.4,3,0.4c1,0,1.9-0.1,2.7-0.4c0.8-0.3,1.4-0.6,1.9-1.1c0.5-0.4,0.9-1,1.1-1.5
	c0.2-0.6,0.4-1.2,0.4-1.8c0-0.8-0.2-1.5-0.7-2c-0.4-0.5-1-1-1.7-1.4c-0.7-0.4-1.5-0.7-2.5-1s-1.9-0.6-2.8-0.9s-1.9-0.7-2.8-1.1
	c-0.9-0.4-1.7-0.9-2.5-1.5c-0.7-0.6-1.3-1.3-1.7-2.2c-0.4-0.9-0.7-1.9-0.7-3.2c0-1.1,0.2-2.2,0.7-3.2s1.2-1.9,2-2.7
	c0.9-0.8,2-1.4,3.3-1.9c1.3-0.5,2.8-0.7,4.5-0.7c1.9,0,3.7,0.3,5.2,0.9c1.5,0.6,2.9,1.4,4,2.5L159.4,117.1z M179.8,111.8
	c2.2,0,4.1,0.4,5.9,1.1c1.7,0.7,3.2,1.7,4.4,3c1.2,1.3,2.2,2.9,2.8,4.8c0.7,1.9,1,3.9,1,6.2c0,2.3-0.3,4.4-1,6.2
	c-0.7,1.8-1.6,3.4-2.8,4.7c-1.2,1.3-2.7,2.3-4.4,3c-1.7,0.7-3.7,1.1-5.9,1.1c-2.2,0-4.1-0.4-5.9-1.1s-3.2-1.7-4.5-3
	c-1.2-1.3-2.2-2.9-2.8-4.7c-0.7-1.8-1-3.9-1-6.2c0-2.3,0.3-4.4,1-6.2c0.7-1.9,1.6-3.4,2.8-4.8c1.2-1.3,2.7-2.3,4.5-3
	S177.7,111.8,179.8,111.8L179.8,111.8z M179.8,137.9c2.9,0,5.1-1,6.6-2.9c1.4-1.9,2.2-4.6,2.2-8.1c0-3.5-0.7-6.2-2.2-8.1
	c-1.4-1.9-3.6-2.9-6.6-2.9c-1.5,0-2.8,0.3-3.9,0.8c-1.1,0.5-2,1.2-2.7,2.2c-0.7,0.9-1.3,2.1-1.6,3.5c-0.4,1.4-0.5,2.9-0.5,4.7
	c0,1.7,0.2,3.3,0.5,4.6c0.4,1.4,0.9,2.5,1.6,3.5c0.7,0.9,1.6,1.7,2.7,2.2C177.1,137.7,178.3,137.9,179.8,137.9L179.8,137.9z
	 M220.6,117.5c-0.2,0.2-0.3,0.4-0.5,0.5c-0.2,0.1-0.4,0.2-0.7,0.2s-0.6-0.1-1-0.4c-0.3-0.2-0.8-0.5-1.3-0.8s-1.2-0.6-1.9-0.8
	c-0.8-0.2-1.7-0.4-2.8-0.4c-1.4,0-2.7,0.3-3.8,0.8s-2,1.2-2.8,2.2s-1.3,2.1-1.7,3.5c-0.4,1.4-0.6,2.9-0.6,4.6c0,1.8,0.2,3.3,0.6,4.7
	c0.4,1.4,1,2.5,1.7,3.5c0.7,0.9,1.6,1.6,2.7,2.1s2.3,0.7,3.6,0.7c1.3,0,2.3-0.1,3.1-0.4s1.5-0.6,2-1c0.5-0.4,1-0.7,1.3-1
	c0.4-0.3,0.7-0.4,1.1-0.4c0.4,0,0.8,0.2,1,0.5l1.5,1.9c-1.3,1.6-2.9,2.7-4.8,3.4c-1.9,0.7-4,1.1-6.1,1.1c-1.9,0-3.6-0.3-5.2-1
	c-1.6-0.7-3-1.7-4.1-2.9c-1.2-1.3-2.1-2.9-2.8-4.7c-0.7-1.9-1-4-1-6.4c0-2.2,0.3-4.2,0.9-6c0.6-1.8,1.5-3.4,2.7-4.8s2.6-2.4,4.4-3.1
	c1.7-0.8,3.7-1.1,6-1.1c2.1,0,3.9,0.3,5.5,1c1.6,0.7,3,1.6,4.2,2.8L220.6,117.5z M233.5,112.3v29.3h-5.2v-29.3H233.5z M234.6,103.1
	c0,0.5-0.1,1-0.3,1.4c-0.2,0.4-0.5,0.8-0.8,1.2c-0.3,0.3-0.7,0.6-1.2,0.8c-0.4,0.2-0.9,0.3-1.4,0.3c-0.5,0-1-0.1-1.4-0.3
	c-0.4-0.2-0.8-0.5-1.2-0.8s-0.6-0.7-0.8-1.2c-0.2-0.4-0.3-0.9-0.3-1.4s0.1-1,0.3-1.4c0.2-0.5,0.5-0.8,0.8-1.2s0.7-0.6,1.2-0.8
	c0.4-0.2,0.9-0.3,1.4-0.3c0.5,0,1,0.1,1.4,0.3c0.4,0.2,0.8,0.5,1.2,0.8c0.3,0.3,0.6,0.7,0.8,1.2
	C234.5,102.1,234.6,102.6,234.6,103.1L234.6,103.1z M264.4,141.5h-2.3c-0.5,0-0.9-0.1-1.2-0.2c-0.3-0.2-0.5-0.5-0.6-1l-0.6-2.7
	c-0.8,0.7-1.5,1.3-2.3,1.9c-0.7,0.5-1.5,1-2.3,1.4c-0.8,0.4-1.7,0.7-2.6,0.9s-2,0.3-3.1,0.3c-1.2,0-2.2-0.2-3.2-0.5
	c-1-0.3-1.9-0.8-2.6-1.4c-0.7-0.6-1.3-1.4-1.8-2.4c-0.4-1-0.7-2.1-0.7-3.5c0-1.2,0.3-2.3,1-3.3s1.7-2,3.1-2.8c1.4-0.8,3.3-1.5,5.6-2
	c2.3-0.5,5.2-0.8,8.5-0.9v-2.3c0-2.3-0.5-4-1.5-5.2c-1-1.2-2.4-1.7-4.4-1.7c-1.3,0-2.3,0.2-3.2,0.5s-1.6,0.7-2.3,1.1
	c-0.6,0.4-1.2,0.8-1.6,1.1c-0.5,0.3-0.9,0.5-1.4,0.5c-0.4,0-0.7-0.1-0.9-0.3c-0.3-0.2-0.5-0.4-0.6-0.7l-0.9-1.6
	c1.6-1.6,3.4-2.7,5.3-3.5s4-1.2,6.3-1.2c1.7,0,3.1,0.3,4.4,0.8c1.3,0.5,2.4,1.3,3.2,2.3c0.9,1,1.5,2.1,2,3.5
	c0.4,1.4,0.7,2.9,0.7,4.5V141.5z M250.9,138.4c0.9,0,1.8-0.1,2.5-0.3c0.8-0.2,1.5-0.4,2.1-0.8s1.3-0.7,1.9-1.2
	c0.6-0.5,1.2-1,1.8-1.6v-6.1c-2.4,0.1-4.4,0.3-6.1,0.6c-1.7,0.3-3,0.7-4.1,1.2s-1.8,1-2.3,1.7s-0.7,1.4-0.7,2.2c0,0.8,0.1,1.4,0.4,2
	c0.3,0.6,0.6,1,1,1.4c0.4,0.4,0.9,0.6,1.5,0.8S250.2,138.4,250.9,138.4L250.9,138.4z M278.1,99v42.5h-5.2V99H278.1z"/>
</svg>
