<?xml version="1.0" encoding="utf-8"?>
<!-- Generator: Adobe Illustrator 21.0.2, SVG Export Plug-In . SVG Version: 6.00 Build 0)  -->
<svg version="1.1" id="svg2" xmlns="http://www.w3.org/2000/svg" xmlns:xlink="http://www.w3.org/1999/xlink" x="0px" y="0px"
	 viewBox="0 0 1071.2 234.2" style="enable-background:new 0 0 1071.2 234.2;" xml:space="preserve">
<style type="text/css">
	.st0{fill:#222222;}
</style>
<title>stukent</title>
<g id="g10">
	<g id="g12">
		<path id="path14" class="st0" d="M518.1,151.3v44.9h-34.5V0h34.5v124.7h31.2l31.2-43.8h34.9l-35.7,57.7l59.5,95.6h-34.9
			l-54.7-82.9H518.1"/>
		<path id="path16" class="st0" d="M189,107.2h47.6v89.1h34.6v-89.1h49.6V80.9H189V107.2"/>
		<path id="path18" class="st0" d="M433.4,151.7c0,6.2-1.3,10.9-4,13.9s-8.4,4.4-17.6,4.4h-19.5c-8.3,0-14-1.6-16.9-4.7
			c-2.9-3.1-4.4-7.7-4.4-13.6V80.9h-34.9V163c0.1,10.5,3.8,18.6,10.9,24.5c7.1,5.8,17.1,8.7,30,8.8h50.8c15.5,0,26.1-2.8,31.8-8.5
			s8.5-13.9,8.5-24.7V80.9h-34.7V151.7"/>
		<path id="path20" class="st0" d="M647.6,83c-4.6,1.1-8.9,3.2-12.6,6.2c-3.2,2.7-5.6,6.3-6.8,10.3c-1.5,4.7-2.2,9.7-2.1,14.6V163
			c-0.1,5,0.6,9.9,2.1,14.6c1.3,4,3.6,7.6,6.8,10.4c3.7,3,8,5.1,12.6,6.2c6.4,1.5,12.9,2.2,19.4,2.1h91.1V170h-75.8
			c-3.5,0.1-7-0.3-10.4-1.2c-2.4-0.7-4.7-1.9-6.5-3.6c-1.7-1.6-2.9-3.6-3.5-5.9c-0.7-2.6-1-5.3-1-8h97.3v-26.3h-97.3
			c0-2.5,0.3-5,1-7.5c0.6-2.2,1.8-4.1,3.5-5.7c1.9-1.7,4.1-2.9,6.5-3.6c3.4-0.9,6.9-1.3,10.4-1.2h75.8V80.9H667
			C660.5,80.8,654,81.5,647.6,83"/>
		<path id="path22" class="st0" d="M865.1,80.9h-50.8c-12.8,0-22.8,2.9-30,8.7c-7.2,5.8-10.8,14-10.9,24.5v82.1h34.9v-70.8
			c0-6,1.5-10.5,4.4-13.6c2.9-3.1,8.5-4.6,16.9-4.7H849c9.2,0,15.1,1.5,17.7,4.4s4,7.7,4,13.9v70.8h34.8v-82.1
			c0-10.7-2.8-19-8.5-24.7C891.2,83.8,880.6,80.9,865.1,80.9"/>
		<path id="path24" class="st0" d="M160,146.5l-86.3-32.6c-0.5,0-0.9-0.8-1-2.4c0.1-2.4,1.3-3.6,3.6-3.6h97.3V81H76.3
			c-9.8,0-18.3,1.4-25.2,5c-15.2,7.8-15.7,24.1-15.7,28.8c0,10.2,4.8,17,14.5,20.3l77.8,28.8c0.8,0.3,1.5,1.4,2.2,3.4
			c0.1,0.3,0.2,0.7,0.2,1c0,1.2-1.2,1.8-3.6,1.8H0c3,9.2,6.9,18,11.9,26.2h133.5c8.5,0,15-2.2,19.5-6.8c4.6-4.7,7.5-9.5,8.7-14.5
			c0.1-0.5,0.2-1.1,0.2-1.6v-1.8c-0.1-4.3-0.9-8.6-2.4-12.7C169.9,153.2,165.6,148.5,160,146.5"/>
		<path id="path26" class="st0" d="M1071.2,107.3c-1.7-9-4.3-17.8-7.9-26.2H909l10.1,26.2h49.4v89h34.5v-89L1071.2,107.3"/>
	</g>
</g>
</svg>
