<?xml version="1.0" encoding="utf-8"?>
<!-- Generator: Adobe Illustrator 21.0.2, SVG Export Plug-In . SVG Version: 6.00 Build 0)  -->
<svg version="1.1" id="Layer_1" xmlns="http://www.w3.org/2000/svg" xmlns:xlink="http://www.w3.org/1999/xlink" x="0px" y="0px"
	 viewBox="0 0 434 216" style="enable-background:new 0 0 434 216;" xml:space="preserve">
<style type="text/css">
	.st0{fill:#FFFFFF;}
	.st1{fill:#A3CCE2;}
	.st2{fill:#FFFFFF;stroke:#A3CCE2;stroke-width:4;stroke-linejoin:round;stroke-miterlimit:10;}
	.st3{fill:#FFFFFF;stroke:#A3CCE2;stroke-width:2;stroke-linejoin:round;stroke-miterlimit:10;}
	.st4{fill:#FFFFFF;stroke:#A3CCE2;stroke-width:3;stroke-linejoin:round;stroke-miterlimit:10;}
</style>
<g>
	<g>
		<path class="st0" d="M15,166c-3.9,0-7-3.1-7-7V16c0-3.9,3.1-7,7-7h212c3.9,0,7,3.1,7,7v143c0,3.9-3.1,7-7,7H15z"/>
		<path class="st1" d="M227,11c2.8,0,5,2.2,5,5v143c0,2.8-2.2,5-5,5H15c-2.8,0-5-2.2-5-5V16c0-2.8,2.2-5,5-5H227 M227,7H15
			c-5,0-9,4-9,9v143c0,5,4,9,9,9h212c5,0,9-4,9-9V16C236,11,232,7,227,7L227,7z"/>
	</g>
	<g>
		<path class="st0" d="M33,152c-3.9,0-7-3.1-7-7V31c0-3.9,3.1-7,7-7h177c3.9,0,7,3.1,7,7v114c0,3.9-3.1,7-7,7H33z"/>
		<path class="st1" d="M210,26c2.8,0,5,2.2,5,5v114c0,2.8-2.2,5-5,5H33c-2.8,0-5-2.2-5-5V31c0-2.8,2.2-5,5-5H210 M210,22H33
			c-5,0-9,4-9,9v114c0,5,4,9,9,9h177c5,0,9-4,9-9V31C219,26,215,22,210,22L210,22z"/>
	</g>
	<path class="st2" d="M103,166c0,0-4,40-18,40h67c0,0-14-5-16-40H103z"/>
</g>
<g>
	<g>
		<path class="st0" d="M283.1,186c-3.9,0-7-3.1-7-7v-70c0-3.9,3.1-7,7-7H395c3.9,0,7,3.1,7,7v70c0,3.9-3.1,7-7,7H283.1z"/>
		<path class="st1" d="M395,104c2.8,0,5,2.2,5,5v70c0,2.8-2.2,5-5,5H283.1c-2.8,0-5-2.2-5-5v-70c0-2.8,2.2-5,5-5H395 M395,100H283.1
			c-5,0-9,4-9,9v70c0,5,4,9,9,9H395c5,0,9-4,9-9v-70C404,104.1,400,100,395,100L395,100z"/>
	</g>
	<g>
		<path class="st0" d="M292.5,173.1c-4.1,0-7.5-3.4-7.5-7.5v-47.1c0-4.1,3.4-7.5,7.5-7.5h93.1c4.1,0,7.5,3.4,7.5,7.5v47.1
			c0,4.1-3.4,7.5-7.5,7.5H292.5z"/>
		<path class="st1" d="M385.6,112.4c3.3,0,6,2.7,6,6v47.1c0,3.3-2.7,6-6,6h-93.1c-3.3,0-6-2.7-6-6v-47.1c0-3.3,2.7-6,6-6H385.6
			 M385.6,109.4h-93.1c-5,0-9,4-9,9v47.1c0,5,4,9,9,9h93.1c5,0,9-4,9-9v-47.1C394.6,113.5,390.5,109.4,385.6,109.4L385.6,109.4z"/>
	</g>
	<polyline class="st2" points="276.5,181.8 251,206 426,206 401.5,181.8 274.1,181.9 	"/>
	<polyline class="st3" points="289.3,186.1 268.8,200.8 409.2,200.8 389.6,186.1 287.3,186.2 	"/>
</g>
<g>
	<g>
		<path class="st0" d="M272-107.5c-4.1,0-7.5-3.4-7.5-7.5v-70.1c0-4.1,3.4-7.5,7.5-7.5h47c4.1,0,7.5,3.4,7.5,7.5v70.1
			c0,4.1-3.4,7.5-7.5,7.5H272z"/>
		<path class="st1" d="M319-191.1c3.3,0,6,2.7,6,6v70.1c0,3.3-2.7,6-6,6h-47c-3.3,0-6-2.7-6-6v-70.1c0-3.3,2.7-6,6-6H319 M319-194.1
			h-47c-5,0-9,4-9,9v70.1c0,5,4,9,9,9h47c5,0,9-4,9-9v-70.1C328-190.1,324-194.1,319-194.1L319-194.1z"/>
	</g>
	<g>
		<path class="st0" d="M281-119.5c-4.1,0-7.5-3.4-7.5-7.5v-50.1c0-4.1,3.4-7.5,7.5-7.5h30c4.1,0,7.5,3.4,7.5,7.5v50.1
			c0,4.1-3.4,7.5-7.5,7.5H281z"/>
		<path class="st1" d="M311-183.1c3.3,0,6,2.7,6,6v50.1c0,3.3-2.7,6-6,6h-30c-3.3,0-6-2.7-6-6v-50.1c0-3.3,2.7-6,6-6H311 M311-186.1
			h-30c-5,0-9,4-9,9v50.1c0,5,4,9,9,9h30c5,0,9-4,9-9v-50.1C320-182.1,316-186.1,311-186.1L311-186.1z"/>
	</g>
	<g>
		<circle class="st0" cx="295.5" cy="-112.5" r="2"/>
		<path class="st1" d="M295.5-114c0.8,0,1.5,0.7,1.5,1.5s-0.7,1.5-1.5,1.5s-1.5-0.7-1.5-1.5S294.7-114,295.5-114 M295.5-115
			c-1.4,0-2.5,1.1-2.5,2.5s1.1,2.5,2.5,2.5s2.5-1.1,2.5-2.5S296.9-115,295.5-115L295.5-115z"/>
	</g>
</g>
<g>
	<path class="st4" d="M382.5-107.5h-11c-6.6,0-12-5.4-12-12v-41c0-6.6,5.4-12,12-12h11c6.6,0,12,5.4,12,12v41
		C394.5-112.9,389.1-107.5,382.5-107.5z"/>
	<path class="st3" d="M381.4-115.5h-8.9c-5,0-9-4-9-9v-32c0-5,4-9,9-9h8.9c5,0,9,4,9,9v32C390.4-119.5,386.4-115.5,381.4-115.5z"/>
	<g>
		<circle class="st0" cx="377.5" cy="-111.5" r="2"/>
		<path class="st1" d="M377.5-113c0.8,0,1.5,0.7,1.5,1.5s-0.7,1.5-1.5,1.5s-1.5-0.7-1.5-1.5S376.7-113,377.5-113 M377.5-114
			c-1.4,0-2.5,1.1-2.5,2.5s1.1,2.5,2.5,2.5s2.5-1.1,2.5-2.5S378.9-114,377.5-114L377.5-114z"/>
	</g>
</g>
</svg>
