<?xml version="1.0" encoding="utf-8"?>
<!-- Generator: Adobe Illustrator 21.0.2, SVG Export Plug-In . SVG Version: 6.00 Build 0)  -->
<svg version="1.1" id="Layer_1" xmlns="http://www.w3.org/2000/svg" xmlns:xlink="http://www.w3.org/1999/xlink" x="0px" y="0px"
	 viewBox="0 0 76 101" style="enable-background:new 0 0 76 101;" xml:space="preserve">
<style type="text/css">
	.st0{fill:#FFFFFF;}
	.st1{fill:#A3CCE2;}
	.st2{fill:#FFFFFF;stroke:#A3CCE2;stroke-width:4;stroke-linejoin:round;stroke-miterlimit:10;}
	.st3{fill:#FFFFFF;stroke:#A3CCE2;stroke-width:2;stroke-linejoin:round;stroke-miterlimit:10;}
	.st4{fill:#FFFFFF;stroke:#A3CCE2;stroke-width:3;stroke-linejoin:round;stroke-miterlimit:10;}
</style>
<g>
	<g>
		<path class="st0" d="M-163-134c-3.9,0-7-3.1-7-7v-143c0-3.9,3.1-7,7-7H49c3.9,0,7,3.1,7,7v143c0,3.9-3.1,7-7,7H-163z"/>
		<path class="st1" d="M49-289c2.8,0,5,2.2,5,5v143c0,2.8-2.2,5-5,5h-212c-2.8,0-5-2.2-5-5v-143c0-2.8,2.2-5,5-5H49 M49-293h-212
			c-5,0-9,4-9,9v143c0,5,4,9,9,9H49c5,0,9-4,9-9v-143C58-289,54-293,49-293L49-293z"/>
	</g>
	<g>
		<path class="st0" d="M-145-148c-3.9,0-7-3.1-7-7v-114c0-3.9,3.1-7,7-7H32c3.9,0,7,3.1,7,7v114c0,3.9-3.1,7-7,7H-145z"/>
		<path class="st1" d="M32-274c2.8,0,5,2.2,5,5v114c0,2.8-2.2,5-5,5h-177c-2.8,0-5-2.2-5-5v-114c0-2.8,2.2-5,5-5H32 M32-278h-177
			c-5,0-9,4-9,9v114c0,5,4,9,9,9H32c5,0,9-4,9-9v-114C41-274,37-278,32-278L32-278z"/>
	</g>
	<path class="st2" d="M-75-134c0,0-4,40-18,40h67c0,0-14-5-16-40H-75z"/>
</g>
<g>
	<g>
		<path class="st0" d="M105.1-114c-3.9,0-7-3.1-7-7v-70c0-3.9,3.1-7,7-7H217c3.9,0,7,3.1,7,7v70c0,3.9-3.1,7-7,7H105.1z"/>
		<path class="st1" d="M217-196c2.8,0,5,2.2,5,5v70c0,2.8-2.2,5-5,5H105.1c-2.8,0-5-2.2-5-5v-70c0-2.8,2.2-5,5-5H217 M217-200H105.1
			c-5,0-9,4-9,9v70c0,5,4,9,9,9H217c5,0,9-4,9-9v-70C226-195.9,222-200,217-200L217-200z"/>
	</g>
	<g>
		<path class="st0" d="M114.5-126.9c-4.1,0-7.5-3.4-7.5-7.5v-47.1c0-4.1,3.4-7.5,7.5-7.5h93.1c4.1,0,7.5,3.4,7.5,7.5v47.1
			c0,4.1-3.4,7.5-7.5,7.5H114.5z"/>
		<path class="st1" d="M207.6-187.6c3.3,0,6,2.7,6,6v47.1c0,3.3-2.7,6-6,6h-93.1c-3.3,0-6-2.7-6-6v-47.1c0-3.3,2.7-6,6-6H207.6
			 M207.6-190.6h-93.1c-5,0-9,4-9,9v47.1c0,5,4,9,9,9h93.1c5,0,9-4,9-9v-47.1C216.6-186.5,212.5-190.6,207.6-190.6L207.6-190.6z"/>
	</g>
	<polyline class="st2" points="98.5,-118.2 73,-94 248,-94 223.5,-118.2 96.1,-118.1 	"/>
	<polyline class="st3" points="111.3,-113.9 90.8,-99.2 231.2,-99.2 211.6,-113.9 109.3,-113.8 	"/>
</g>
<g>
	<g>
		<path class="st0" d="M14,93.5c-4.1,0-7.5-3.4-7.5-7.5V15.9c0-4.1,3.4-7.5,7.5-7.5h47c4.1,0,7.5,3.4,7.5,7.5V86
			c0,4.1-3.4,7.5-7.5,7.5H14z"/>
		<path class="st1" d="M61,9.9c3.3,0,6,2.7,6,6V86c0,3.3-2.7,6-6,6H14c-3.3,0-6-2.7-6-6V15.9c0-3.3,2.7-6,6-6H61 M61,6.9H14
			c-5,0-9,4-9,9V86c0,5,4,9,9,9h47c5,0,9-4,9-9V15.9C70,10.9,66,6.9,61,6.9L61,6.9z"/>
	</g>
	<g>
		<path class="st0" d="M23,81.5c-4.1,0-7.5-3.4-7.5-7.5V23.9c0-4.1,3.4-7.5,7.5-7.5h30c4.1,0,7.5,3.4,7.5,7.5V74
			c0,4.1-3.4,7.5-7.5,7.5H23z"/>
		<path class="st1" d="M53,17.9c3.3,0,6,2.7,6,6V74c0,3.3-2.7,6-6,6H23c-3.3,0-6-2.7-6-6V23.9c0-3.3,2.7-6,6-6H53 M53,14.9H23
			c-5,0-9,4-9,9V74c0,5,4,9,9,9h30c5,0,9-4,9-9V23.9C62,18.9,58,14.9,53,14.9L53,14.9z"/>
	</g>
	<g>
		<circle class="st0" cx="37.5" cy="88.5" r="2"/>
		<path class="st1" d="M37.5,87c0.8,0,1.5,0.7,1.5,1.5S38.3,90,37.5,90S36,89.3,36,88.5S36.7,87,37.5,87 M37.5,86
			c-1.4,0-2.5,1.1-2.5,2.5s1.1,2.5,2.5,2.5s2.5-1.1,2.5-2.5S38.9,86,37.5,86L37.5,86z"/>
	</g>
</g>
<g>
	<path class="st4" d="M347.5-160.5h-11c-6.6,0-12-5.4-12-12v-41c0-6.6,5.4-12,12-12h11c6.6,0,12,5.4,12,12v41
		C359.5-165.9,354.1-160.5,347.5-160.5z"/>
	<path class="st3" d="M346.4-168.5h-8.9c-5,0-9-4-9-9v-32c0-5,4-9,9-9h8.9c5,0,9,4,9,9v32C355.4-172.5,351.4-168.5,346.4-168.5z"/>
	<g>
		<circle class="st0" cx="342.5" cy="-164.5" r="2"/>
		<path class="st1" d="M342.5-166c0.8,0,1.5,0.7,1.5,1.5s-0.7,1.5-1.5,1.5s-1.5-0.7-1.5-1.5S341.7-166,342.5-166 M342.5-167
			c-1.4,0-2.5,1.1-2.5,2.5s1.1,2.5,2.5,2.5s2.5-1.1,2.5-2.5S343.9-167,342.5-167L342.5-167z"/>
	</g>
</g>
</svg>
