<?xml version="1.0" encoding="utf-8"?>
<!-- Generator: Adobe Illustrator 21.0.2, SVG Export Plug-In . SVG Version: 6.00 Build 0)  -->
<svg version="1.1" id="Layer_1" xmlns="http://www.w3.org/2000/svg" xmlns:xlink="http://www.w3.org/1999/xlink" x="0px" y="0px"
	 viewBox="0 0 591 216" style="enable-background:new 0 0 591 216;" xml:space="preserve">
<style type="text/css">
	.st0{fill:#FFFFFF;}
	.st1{fill:#A3CCE2;}
	.st2{fill:#FFFFFF;stroke:#A3CCE2;stroke-width:4;stroke-linejoin:round;stroke-miterlimit:10;}
	.st3{fill:#FFFFFF;stroke:#A3CCE2;stroke-width:2;stroke-linejoin:round;stroke-miterlimit:10;}
	.st4{fill:#FFFFFF;stroke:#A3CCE2;stroke-width:3;stroke-linejoin:round;stroke-miterlimit:10;}
	.st5{fill:none;stroke:#A3CCE2;stroke-width:2;stroke-linejoin:round;stroke-miterlimit:10;}
</style>
<g>
	<g>
		<path class="st0" d="M15,166c-3.9,0-7-3.1-7-7V16c0-3.9,3.1-7,7-7h212c3.9,0,7,3.1,7,7v143c0,3.9-3.1,7-7,7H15z"/>
		<path class="st1" d="M227,11c2.8,0,5,2.2,5,5v143c0,2.8-2.2,5-5,5H15c-2.8,0-5-2.2-5-5V16c0-2.8,2.2-5,5-5H227 M227,7H15
			c-5,0-9,4-9,9v143c0,5,4,9,9,9h212c5,0,9-4,9-9V16C236,11,232,7,227,7L227,7z"/>
	</g>
	<g>
		<path class="st0" d="M33,152c-3.9,0-7-3.1-7-7V31c0-3.9,3.1-7,7-7h177c3.9,0,7,3.1,7,7v114c0,3.9-3.1,7-7,7H33z"/>
		<path class="st1" d="M210,26c2.8,0,5,2.2,5,5v114c0,2.8-2.2,5-5,5H33c-2.8,0-5-2.2-5-5V31c0-2.8,2.2-5,5-5H210 M210,22H33
			c-5,0-9,4-9,9v114c0,5,4,9,9,9h177c5,0,9-4,9-9V31C219,26,215,22,210,22L210,22z"/>
	</g>
	<path class="st2" d="M103,166c0,0-4,40-18,40h67c0,0-14-5-16-40H103z"/>
</g>
<g>
	<g>
		<path class="st0" d="M283.1,186c-3.9,0-7-3.1-7-7v-70c0-3.9,3.1-7,7-7H395c3.9,0,7,3.1,7,7v70c0,3.9-3.1,7-7,7H283.1z"/>
		<path class="st1" d="M395,104c2.8,0,5,2.2,5,5v70c0,2.8-2.2,5-5,5H283.1c-2.8,0-5-2.2-5-5v-70c0-2.8,2.2-5,5-5H395 M395,100H283.1
			c-5,0-9,4-9,9v70c0,5,4,9,9,9H395c5,0,9-4,9-9v-70C404,104.1,400,100,395,100L395,100z"/>
	</g>
	<g>
		<path class="st0" d="M292.5,173.1c-4.1,0-7.5-3.4-7.5-7.5v-47.1c0-4.1,3.4-7.5,7.5-7.5h93.1c4.1,0,7.5,3.4,7.5,7.5v47.1
			c0,4.1-3.4,7.5-7.5,7.5H292.5z"/>
		<path class="st1" d="M385.6,112.4c3.3,0,6,2.7,6,6v47.1c0,3.3-2.7,6-6,6h-93.1c-3.3,0-6-2.7-6-6v-47.1c0-3.3,2.7-6,6-6H385.6
			 M385.6,109.4h-93.1c-5,0-9,4-9,9v47.1c0,5,4,9,9,9h93.1c5,0,9-4,9-9v-47.1C394.6,113.5,390.5,109.4,385.6,109.4L385.6,109.4z"/>
	</g>
	<polyline class="st2" points="276.5,181.8 251,206 426,206 401.5,181.8 274.1,181.9 	"/>
	<polyline class="st3" points="289.3,186.1 268.8,200.8 409.2,200.8 389.6,186.1 287.3,186.2 	"/>
</g>
<g>
	<g>
		<path class="st0" d="M460,205.5c-4.1,0-7.5-3.4-7.5-7.5v-70.1c0-4.1,3.4-7.5,7.5-7.5h47c4.1,0,7.5,3.4,7.5,7.5V198
			c0,4.1-3.4,7.5-7.5,7.5H460z"/>
		<path class="st1" d="M507,121.9c3.3,0,6,2.7,6,6V198c0,3.3-2.7,6-6,6h-47c-3.3,0-6-2.7-6-6v-70.1c0-3.3,2.7-6,6-6H507 M507,118.9
			h-47c-5,0-9,4-9,9V198c0,5,4,9,9,9h47c5,0,9-4,9-9v-70.1C516,122.9,512,118.9,507,118.9L507,118.9z"/>
	</g>
	<g>
		<path class="st0" d="M469,193.5c-4.1,0-7.5-3.4-7.5-7.5v-50.1c0-4.1,3.4-7.5,7.5-7.5h30c4.1,0,7.5,3.4,7.5,7.5V186
			c0,4.1-3.4,7.5-7.5,7.5H469z"/>
		<path class="st1" d="M499,129.9c3.3,0,6,2.7,6,6V186c0,3.3-2.7,6-6,6h-30c-3.3,0-6-2.7-6-6v-50.1c0-3.3,2.7-6,6-6H499 M499,126.9
			h-30c-5,0-9,4-9,9V186c0,5,4,9,9,9h30c5,0,9-4,9-9v-50.1C508,130.9,504,126.9,499,126.9L499,126.9z"/>
	</g>
	<g>
		<circle class="st0" cx="483.5" cy="200.5" r="2"/>
		<path class="st1" d="M483.5,199c0.8,0,1.5,0.7,1.5,1.5s-0.7,1.5-1.5,1.5s-1.5-0.7-1.5-1.5S482.7,199,483.5,199 M483.5,198
			c-1.4,0-2.5,1.1-2.5,2.5s1.1,2.5,2.5,2.5s2.5-1.1,2.5-2.5S484.9,198,483.5,198L483.5,198z"/>
	</g>
</g>
<g>
	<path class="st4" d="M570.5,205.5h-11c-6.6,0-12-5.4-12-12v-41c0-6.6,5.4-12,12-12h11c6.6,0,12,5.4,12,12v41
		C582.5,200.1,577.1,205.5,570.5,205.5z"/>
	<path class="st3" d="M569.4,197.5h-8.9c-5,0-9-4-9-9v-32c0-5,4-9,9-9h8.9c5,0,9,4,9,9v32C578.4,193.5,574.4,197.5,569.4,197.5z"/>
	<g>
		<circle class="st0" cx="565.5" cy="201.5" r="2"/>
		<path class="st1" d="M565.5,200c0.8,0,1.5,0.7,1.5,1.5s-0.7,1.5-1.5,1.5s-1.5-0.7-1.5-1.5S564.7,200,565.5,200 M565.5,199
			c-1.4,0-2.5,1.1-2.5,2.5s1.1,2.5,2.5,2.5s2.5-1.1,2.5-2.5S566.9,199,565.5,199L565.5,199z"/>
	</g>
</g>
<line class="st5" x1="399" y1="102.5" x2="484.5" y2="102.5"/>
<line class="st5" x1="483.5" y1="102" x2="483.5" y2="121"/>
<line class="st5" x1="236" y1="29.6" x2="339" y2="29.6"/>
<line class="st5" x1="337.8" y1="29" x2="337.8" y2="100"/>
<line class="st5" x1="514" y1="124.4" x2="567.5" y2="124.4"/>
<line class="st5" x1="566.5" y1="124" x2="566.5" y2="140"/>
</svg>
