<?xml version="1.0" encoding="utf-8"?>
<!-- Generator: Adobe Illustrator 21.0.2, SVG Export Plug-In . SVG Version: 6.00 Build 0)  -->
<svg version="1.1" id="Layer_1" xmlns="http://www.w3.org/2000/svg" xmlns:xlink="http://www.w3.org/1999/xlink" x="0px" y="0px"
	 viewBox="0 0 76 101" style="enable-background:new 0 0 76 101;" xml:space="preserve">
<style type="text/css">
	.st0{fill:#FFFFFF;}
	.st1{fill:#A3CCE2;}
	.st2{fill:#FFFFFF;stroke:#A3CCE2;stroke-width:4;stroke-linejoin:round;stroke-miterlimit:10;}
	.st3{fill:#FFFFFF;stroke:#A3CCE2;stroke-width:2;stroke-linejoin:round;stroke-miterlimit:10;}
	.st4{fill:#FFFFFF;stroke:#A3CCE2;stroke-width:3;stroke-linejoin:round;stroke-miterlimit:10;}
</style>
<g>
	<g>
		<path class="st0" d="M-163-134c-3.9,0-7-3.1-7-7v-143c0-3.9,3.1-7,7-7H49c3.9,0,7,3.1,7,7v143c0,3.9-3.1,7-7,7H-163z"/>
		<path class="st1" d="M49-289c2.8,0,5,2.2,5,5v143c0,2.8-2.2,5-5,5h-212c-2.8,0-5-2.2-5-5v-143c0-2.8,2.2-5,5-5H49 M49-293h-212
			c-5,0-9,4-9,9v143c0,5,4,9,9,9H49c5,0,9-4,9-9v-143C58-289,54-293,49-293L49-293z"/>
	</g>
	<g>
		<path class="st0" d="M-145-148c-3.9,0-7-3.1-7-7v-114c0-3.9,3.1-7,7-7H32c3.9,0,7,3.1,7,7v114c0,3.9-3.1,7-7,7H-145z"/>
		<path class="st1" d="M32-274c2.8,0,5,2.2,5,5v114c0,2.8-2.2,5-5,5h-177c-2.8,0-5-2.2-5-5v-114c0-2.8,2.2-5,5-5H32 M32-278h-177
			c-5,0-9,4-9,9v114c0,5,4,9,9,9H32c5,0,9-4,9-9v-114C41-274,37-278,32-278L32-278z"/>
	</g>
	<path class="st2" d="M-75-134c0,0-4,40-18,40h67c0,0-14-5-16-40H-75z"/>
</g>
<g>
	<g>
		<path class="st0" d="M105.1-114c-3.9,0-7-3.1-7-7v-70c0-3.9,3.1-7,7-7H217c3.9,0,7,3.1,7,7v70c0,3.9-3.1,7-7,7H105.1z"/>
		<path class="st1" d="M217-196c2.8,0,5,2.2,5,5v70c0,2.8-2.2,5-5,5H105.1c-2.8,0-5-2.2-5-5v-70c0-2.8,2.2-5,5-5H217 M217-200H105.1
			c-5,0-9,4-9,9v70c0,5,4,9,9,9H217c5,0,9-4,9-9v-70C226-195.9,222-200,217-200L217-200z"/>
	</g>
	<g>
		<path class="st0" d="M114.5-126.9c-4.1,0-7.5-3.4-7.5-7.5v-47.1c0-4.1,3.4-7.5,7.5-7.5h93.1c4.1,0,7.5,3.4,7.5,7.5v47.1
			c0,4.1-3.4,7.5-7.5,7.5H114.5z"/>
		<path class="st1" d="M207.6-187.6c3.3,0,6,2.7,6,6v47.1c0,3.3-2.7,6-6,6h-93.1c-3.3,0-6-2.7-6-6v-47.1c0-3.3,2.7-6,6-6H207.6
			 M207.6-190.6h-93.1c-5,0-9,4-9,9v47.1c0,5,4,9,9,9h93.1c5,0,9-4,9-9v-47.1C216.6-186.5,212.5-190.6,207.6-190.6L207.6-190.6z"/>
	</g>
	<polyline class="st2" points="98.5,-118.2 73,-94 248,-94 223.5,-118.2 96.1,-118.1 	"/>
	<polyline class="st3" points="111.3,-113.9 90.8,-99.2 231.2,-99.2 211.6,-113.9 109.3,-113.8 	"/>
</g>
<g>
	<g>
		<path class="st0" d="M293-22.5c-4.1,0-7.5-3.4-7.5-7.5v-70.1c0-4.1,3.4-7.5,7.5-7.5h47c4.1,0,7.5,3.4,7.5,7.5V-30
			c0,4.1-3.4,7.5-7.5,7.5H293z"/>
		<path class="st1" d="M340-106.1c3.3,0,6,2.7,6,6V-30c0,3.3-2.7,6-6,6h-47c-3.3,0-6-2.7-6-6v-70.1c0-3.3,2.7-6,6-6H340 M340-109.1
			h-47c-5,0-9,4-9,9V-30c0,5,4,9,9,9h47c5,0,9-4,9-9v-70.1C349-105.1,345-109.1,340-109.1L340-109.1z"/>
	</g>
	<g>
		<path class="st0" d="M302-34.5c-4.1,0-7.5-3.4-7.5-7.5v-50.1c0-4.1,3.4-7.5,7.5-7.5h30c4.1,0,7.5,3.4,7.5,7.5V-42
			c0,4.1-3.4,7.5-7.5,7.5H302z"/>
		<path class="st1" d="M332-98.1c3.3,0,6,2.7,6,6V-42c0,3.3-2.7,6-6,6h-30c-3.3,0-6-2.7-6-6v-50.1c0-3.3,2.7-6,6-6H332 M332-101.1
			h-30c-5,0-9,4-9,9V-42c0,5,4,9,9,9h30c5,0,9-4,9-9v-50.1C341-97.1,337-101.1,332-101.1L332-101.1z"/>
	</g>
	<g>
		<circle class="st0" cx="316.5" cy="-27.5" r="2"/>
		<path class="st1" d="M316.5-29c0.8,0,1.5,0.7,1.5,1.5s-0.7,1.5-1.5,1.5s-1.5-0.7-1.5-1.5S315.7-29,316.5-29 M316.5-30
			c-1.4,0-2.5,1.1-2.5,2.5s1.1,2.5,2.5,2.5s2.5-1.1,2.5-2.5S317.9-30,316.5-30L316.5-30z"/>
	</g>
</g>
<g>
	<path class="st4" d="M44.5,83.5h-11c-6.6,0-12-5.4-12-12v-41c0-6.6,5.4-12,12-12h11c6.6,0,12,5.4,12,12v41
		C56.5,78.1,51.1,83.5,44.5,83.5z"/>
	<path class="st3" d="M43.4,75.5h-8.9c-5,0-9-4-9-9v-32c0-5,4-9,9-9h8.9c5,0,9,4,9,9v32C52.4,71.5,48.4,75.5,43.4,75.5z"/>
	<g>
		<circle class="st0" cx="39.5" cy="79.5" r="2"/>
		<path class="st1" d="M39.5,78c0.8,0,1.5,0.7,1.5,1.5S40.3,81,39.5,81S38,80.3,38,79.5S38.7,78,39.5,78 M39.5,77
			c-1.4,0-2.5,1.1-2.5,2.5s1.1,2.5,2.5,2.5s2.5-1.1,2.5-2.5S40.9,77,39.5,77L39.5,77z"/>
	</g>
</g>
</svg>
